<?xml version="1.0" encoding="UTF-8"?>
<!DOCTYPE svg PUBLIC "-//W3C//DTD SVG 1.1//EN" "http://www.w3.org/Graphics/SVG/1.1/DTD/svg11.dtd">
<svg xmlns="http://www.w3.org/2000/svg" version="1.1" width="600px" height="600px" style="shape-rendering:geometricPrecision; text-rendering:geometricPrecision; image-rendering:optimizeQuality; fill-rule:evenodd; clip-rule:evenodd" xmlns:xlink="http://www.w3.org/1999/xlink">
<g><path style="opacity:1" fill="#8301af" d="M -0.5,-0.5 C 199.5,-0.5 399.5,-0.5 599.5,-0.5C 599.5,199.5 599.5,399.5 599.5,599.5C 399.5,599.5 199.5,599.5 -0.5,599.5C -0.5,399.5 -0.5,199.5 -0.5,-0.5 Z"/></g>
<g><path style="opacity:1" fill="#fefdfe" d="M 147.5,3.5 C 148.152,4.4486 148.486,5.61527 148.5,7C 145.363,40.4778 142.863,73.9778 141,107.5C 163.118,86.7066 186.951,68.2066 212.5,52C 299.273,5.74496 386.606,4.74496 474.5,49C 507.57,67.2322 535.57,91.3989 558.5,121.5C 549.636,129.848 540.47,137.848 531,145.5C 476.623,79.4159 406.457,49.5826 320.5,56C 278.66,60.8288 240.994,75.8288 207.5,101C 194.538,111.627 181.871,122.627 169.5,134C 201.804,137.293 234.137,140.293 266.5,143C 254.129,154.373 241.462,165.373 228.5,176C 185.524,172.891 142.524,169.724 99.5,166.5C 102.05,123.127 105.217,79.7939 109,36.5C 122.025,25.6352 134.859,14.6352 147.5,3.5 Z"/></g>
<g><path style="opacity:1" fill="#fefefe" d="M 148.5,187.5 C 169.422,185.618 189.755,188.118 209.5,195C 236.173,208.542 250.173,230.375 251.5,260.5C 235.5,260.5 219.5,260.5 203.5,260.5C 199.494,233.982 184.161,222.816 157.5,227C 139.238,233.277 129.071,246.11 127,265.5C 126.333,288.5 126.333,311.5 127,334.5C 132.429,365.977 150.929,378.81 182.5,373C 188.926,371.914 194.926,369.748 200.5,366.5C 201.499,354.518 201.832,342.518 201.5,330.5C 190.167,330.5 178.833,330.5 167.5,330.5C 167.5,319.5 167.5,308.5 167.5,297.5C 195.833,297.5 224.167,297.5 252.5,297.5C 252.667,325.169 252.5,352.835 252,380.5C 235.957,397.107 216.457,407.273 193.5,411C 168.328,415.535 143.995,412.701 120.5,402.5C 93.7605,387.246 78.9271,364.246 76,333.5C 75.3333,310.5 75.3333,287.5 76,264.5C 82.5664,222.104 106.733,196.437 148.5,187.5 Z"/></g>
<g><path style="opacity:1" fill="#fefefe" d="M 287.5,190.5 C 304.5,190.5 321.5,190.5 338.5,190.5C 338.5,263.5 338.5,336.5 338.5,409.5C 321.5,409.5 304.5,409.5 287.5,409.5C 287.5,336.5 287.5,263.5 287.5,190.5 Z"/></g>
<g><path style="opacity:1" fill="#fefffe" d="M 530.5,190.5 C 530.5,203.167 530.5,215.833 530.5,228.5C 495.996,228.168 461.663,228.502 427.5,229.5C 427.5,247.167 427.5,264.833 427.5,282.5C 456.833,282.5 486.167,282.5 515.5,282.5C 515.5,295.5 515.5,308.5 515.5,321.5C 486.167,321.5 456.833,321.5 427.5,321.5C 427.5,350.833 427.5,380.167 427.5,409.5C 410.5,409.5 393.5,409.5 376.5,409.5C 376.5,336.5 376.5,263.5 376.5,190.5C 427.833,190.5 479.167,190.5 530.5,190.5 Z"/></g>
<g><path style="opacity:1" fill="#d9b1e6" d="M 530.5,190.5 C 531.495,203.323 531.829,216.323 531.5,229.5C 496.833,229.5 462.167,229.5 427.5,229.5C 461.663,228.502 495.996,228.168 530.5,228.5C 530.5,215.833 530.5,203.167 530.5,190.5 Z"/></g>
<g><path style="opacity:1" fill="#fefdfe" d="M 369.5,423.5 C 412.839,426.782 456.172,430.116 499.5,433.5C 496.807,476.53 493.641,519.53 490,562.5C 477,573.5 464,584.5 451,595.5C 452.968,561.814 455.468,528.147 458.5,494.5C 458.167,493.833 457.833,493.167 457.5,492.5C 440.228,508.277 422.228,523.111 403.5,537C 331.799,583.424 254.799,594.757 172.5,571C 120.019,554.173 76.5186,524.339 42,481.5C 41.0181,480.241 40.6848,478.908 41,477.5C 50.0731,469.382 59.2397,461.382 68.5,453.5C 115.004,512.714 176.171,543.048 252,544.5C 306.967,544.402 355.8,527.235 398.5,493C 408.982,484.019 419.315,474.852 429.5,465.5C 396.858,462.447 364.192,459.613 331.5,457C 344.657,446.34 357.324,435.173 369.5,423.5 Z"/></g>
</svg>
